<svg width="507" height="106" viewBox="0 0 507 106" fill="none" xmlns="http://www.w3.org/2000/svg">
<g clip-path="url(#clip0_7_31)">
<path fill-rule="evenodd" clip-rule="evenodd" d="M165.635 42.1454L118.735 69.2454C118.735 69.2454 116.635 52.2454 128.035 43.6454C137.435 36.5454 159.635 24.6454 159.635 24.6454" fill="white"/>
<path fill-rule="evenodd" clip-rule="evenodd" d="M82.0349 70.3454C83.1349 74.2454 84.7349 77.9454 86.8349 81.6454C87.7349 83.2454 88.7349 84.7454 89.7349 86.1454L71.1349 96.9454C71.1349 96.9454 69.1349 79.9454 80.5349 71.4454C80.9349 71.1454 81.4349 70.7454 82.0349 70.3454Z" fill="#F16623"/>
<path fill-rule="evenodd" clip-rule="evenodd" d="M191.135 40.0454C194.635 61.0454 183.035 86.7454 163.535 98.0454C138.435 112.545 106.335 103.945 91.8349 78.8454C77.3349 53.6454 85.9349 21.5454 111.035 7.04544C136.135 -7.45456 168.235 1.14544 182.735 26.2454C182.935 26.6454 184.935 30.1454 185.035 30.9454L164.735 42.6454C164.335 41.8454 163.035 38.6454 162.635 37.9454C154.535 23.9454 136.035 17.6454 122.035 25.6454C108.035 33.7454 102.035 53.6454 110.135 67.6454C118.235 81.6454 138.935 88.2454 152.835 80.2454C157.335 77.6454 165.735 71.3454 169.435 61.8454C174.535 48.7454 179.435 44.7454 191.135 40.0454Z" fill="white"/>
<path d="M237.735 85.2454H225.435C224.635 85.2454 223.935 84.5454 223.935 83.7454V15.7454C223.935 14.9454 224.635 14.2454 225.435 14.2454H237.735C238.535 14.2454 239.235 14.9454 239.235 15.7454V83.7454C239.235 84.5454 238.535 85.2454 237.735 85.2454ZM270.335 26.5454H235.935C235.135 26.5454 234.435 25.8454 234.435 25.0454V15.6454C234.435 14.8454 235.135 14.1454 235.935 14.1454H270.335C271.135 14.1454 271.835 14.8454 271.835 15.6454V25.0454C271.835 25.9454 271.135 26.5454 270.335 26.5454ZM265.435 54.7454H235.835C235.035 54.7454 234.335 54.0454 234.335 53.2454V44.3454C234.335 43.5454 235.035 42.8454 235.835 42.8454H265.435C266.235 42.8454 266.935 43.5454 266.935 44.3454V53.2454C267.035 54.0454 266.335 54.7454 265.435 54.7454ZM270.335 85.2454H235.835C235.035 85.2454 234.335 84.5454 234.335 83.7454V74.4454C234.335 73.6454 235.035 72.9454 235.835 72.9454H270.335C271.135 72.9454 271.835 73.6454 271.835 74.4454V83.7454C271.835 84.5454 271.235 85.2454 270.335 85.2454Z" fill="#F16623"/>
<path d="M302.368 15.96V87H285.952V15.96H302.368ZM322.521 27.864C319.641 27.864 317.273 27.032 315.417 25.368C313.625 23.64 312.729 21.528 312.729 19.032C312.729 16.472 313.625 14.36 315.417 12.696C317.273 10.968 319.641 10.104 322.521 10.104C325.337 10.104 327.641 10.968 329.433 12.696C331.289 14.36 332.217 16.472 332.217 19.032C332.217 21.528 331.289 23.64 329.433 25.368C327.641 27.032 325.337 27.864 322.521 27.864ZM330.681 33.432V87H314.265V33.432H330.681ZM372.433 73.08V87H364.081C358.129 87 353.489 85.56 350.161 82.68C346.833 79.736 345.169 74.968 345.169 68.376V47.064H338.641V33.432H345.169V20.376H361.585V33.432H372.337V47.064H361.585V68.568C361.585 70.168 361.969 71.32 362.737 72.024C363.505 72.728 364.785 73.08 366.577 73.08H372.433ZM432.073 59.352C432.073 60.888 431.977 62.488 431.785 64.152H394.633C394.889 67.48 395.945 70.04 397.801 71.832C399.721 73.56 402.057 74.424 404.809 74.424C408.905 74.424 411.753 72.696 413.353 69.24H430.825C429.929 72.76 428.297 75.928 425.929 78.744C423.625 81.56 420.713 83.768 417.193 85.368C413.673 86.968 409.737 87.768 405.385 87.768C400.137 87.768 395.465 86.648 391.369 84.408C387.273 82.168 384.073 78.968 381.769 74.808C379.465 70.648 378.313 65.784 378.313 60.216C378.313 54.648 379.433 49.784 381.673 45.624C383.977 41.464 387.177 38.264 391.273 36.024C395.369 33.784 400.073 32.664 405.385 32.664C410.569 32.664 415.177 33.752 419.209 35.928C423.241 38.104 426.377 41.208 428.617 45.24C430.921 49.272 432.073 53.976 432.073 59.352ZM415.273 55.032C415.273 52.216 414.313 49.976 412.393 48.312C410.473 46.648 408.073 45.816 405.193 45.816C402.441 45.816 400.105 46.616 398.185 48.216C396.329 49.816 395.177 52.088 394.729 55.032H415.273Z" fill="white"/>
</g>
<defs>
<clipPath id="clip0_7_31">
<rect width="506.1" height="105.9" fill="white"/>
</clipPath>
</defs>
</svg>
