<svg width="507" height="106" viewBox="0 0 507 106" fill="none" xmlns="http://www.w3.org/2000/svg">
<g clip-path="url(#clip0_8_12)">
<path fill-rule="evenodd" clip-rule="evenodd" d="M145.183 42.4599L92.5598 70.1506C92.5598 70.1506 90.2036 52.7801 102.995 43.9926C113.542 36.7378 138.451 24.5785 138.451 24.5785" fill="white"/>
<path fill-rule="evenodd" clip-rule="evenodd" d="M51.3815 71.2746C52.6157 75.2596 54.411 79.0403 56.7672 82.8209C57.777 84.4558 58.8991 85.9885 60.0211 87.419L39.1514 98.4544C39.1514 98.4544 36.9073 81.0839 49.6984 72.3986C50.1473 72.0921 50.7083 71.6833 51.3815 71.2746Z" fill="#F16623"/>
<path fill-rule="evenodd" clip-rule="evenodd" d="M173.795 40.3142C177.722 61.7719 164.706 88.0321 142.827 99.5784C114.664 114.394 78.6467 105.607 62.3773 79.9599C46.108 54.2106 55.7574 21.4109 83.9202 6.59484C112.083 -8.22122 148.1 0.566237 164.37 26.2133C164.594 26.6221 166.838 30.1984 166.95 31.0158L144.173 42.9708C143.724 42.1534 142.266 38.8836 141.817 38.1684C132.728 23.8632 111.971 17.4259 96.2625 25.6003C80.5542 33.8768 73.822 54.2106 82.9104 68.5158C91.9988 82.8209 115.225 89.5648 130.821 81.3904C135.87 78.7337 145.295 72.2964 149.447 62.5893C155.169 49.2038 160.667 45.1166 173.795 40.3142Z" fill="white"/>
<path d="M209.391 86.672C204.463 86.672 200.047 85.872 196.143 84.272C192.239 82.672 189.103 80.304 186.735 77.168C184.431 74.032 183.215 70.256 183.087 65.84H200.559C200.815 68.336 201.679 70.256 203.151 71.6C204.623 72.88 206.543 73.52 208.911 73.52C211.343 73.52 213.263 72.976 214.671 71.888C216.079 70.736 216.783 69.168 216.783 67.184C216.783 65.52 216.207 64.144 215.055 63.056C213.967 61.968 212.591 61.072 210.927 60.368C209.327 59.664 207.023 58.864 204.015 57.968C199.663 56.624 196.111 55.28 193.359 53.936C190.607 52.592 188.239 50.608 186.255 47.984C184.271 45.36 183.279 41.936 183.279 37.712C183.279 31.44 185.551 26.544 190.095 23.024C194.639 19.44 200.559 17.648 207.855 17.648C215.279 17.648 221.263 19.44 225.807 23.024C230.351 26.544 232.783 31.472 233.103 37.808H215.343C215.215 35.632 214.415 33.936 212.943 32.72C211.471 31.44 209.583 30.8 207.279 30.8C205.295 30.8 203.695 31.344 202.479 32.432C201.263 33.456 200.655 34.96 200.655 36.944C200.655 39.12 201.679 40.816 203.727 42.032C205.775 43.248 208.975 44.56 213.327 45.968C217.679 47.44 221.199 48.848 223.887 50.192C226.639 51.536 229.007 53.488 230.991 56.048C232.975 58.608 233.967 61.904 233.967 65.936C233.967 69.776 232.975 73.264 230.991 76.4C229.071 79.536 226.255 82.032 222.543 83.888C218.831 85.744 214.447 86.672 209.391 86.672Z" fill="#F16623"/>
<path d="M268.453 86.768C263.205 86.768 258.469 85.648 254.245 83.408C250.085 81.168 246.789 77.968 244.357 73.808C241.989 69.648 240.805 64.784 240.805 59.216C240.805 53.712 242.021 48.88 244.453 44.72C246.885 40.496 250.213 37.264 254.437 35.024C258.661 32.784 263.397 31.664 268.645 31.664C273.893 31.664 278.629 32.784 282.853 35.024C287.077 37.264 290.405 40.496 292.837 44.72C295.269 48.88 296.485 53.712 296.485 59.216C296.485 64.72 295.237 69.584 292.741 73.808C290.309 77.968 286.949 81.168 282.661 83.408C278.437 85.648 273.701 86.768 268.453 86.768ZM268.453 72.56C271.589 72.56 274.245 71.408 276.421 69.104C278.661 66.8 279.781 63.504 279.781 59.216C279.781 54.928 278.693 51.632 276.517 49.328C274.405 47.024 271.781 45.872 268.645 45.872C265.445 45.872 262.789 47.024 260.677 49.328C258.565 51.568 257.509 54.864 257.509 59.216C257.509 63.504 258.533 66.8 260.581 69.104C262.693 71.408 265.317 72.56 268.453 72.56ZM373.546 31.856C380.202 31.856 385.482 33.872 389.386 37.904C393.354 41.936 395.338 47.536 395.338 54.704V86H379.018V56.912C379.018 53.456 378.09 50.8 376.234 48.944C374.442 47.024 371.946 46.064 368.746 46.064C365.546 46.064 363.018 47.024 361.162 48.944C359.37 50.8 358.474 53.456 358.474 56.912V86H342.154V56.912C342.154 53.456 341.226 50.8 339.37 48.944C337.578 47.024 335.082 46.064 331.882 46.064C328.682 46.064 326.154 47.024 324.298 48.944C322.506 50.8 321.61 53.456 321.61 56.912V86H305.194V32.432H321.61V39.152C323.274 36.912 325.45 35.152 328.138 33.872C330.826 32.528 333.866 31.856 337.258 31.856C341.29 31.856 344.874 32.72 348.01 34.448C351.21 36.176 353.706 38.64 355.498 41.84C357.354 38.896 359.882 36.496 363.082 34.64C366.282 32.784 369.77 31.856 373.546 31.856ZM403.555 59.12C403.555 53.616 404.579 48.784 406.627 44.624C408.739 40.464 411.587 37.264 415.171 35.024C418.755 32.784 422.755 31.664 427.171 31.664C430.947 31.664 434.243 32.432 437.059 33.968C439.939 35.504 442.147 37.52 443.683 40.016V32.432H460.099V86H443.683V78.416C442.083 80.912 439.843 82.928 436.963 84.464C434.147 86 430.851 86.768 427.075 86.768C422.723 86.768 418.755 85.648 415.171 83.408C411.587 81.104 408.739 77.872 406.627 73.712C404.579 69.488 403.555 64.624 403.555 59.12ZM443.683 59.216C443.683 55.12 442.531 51.888 440.227 49.52C437.987 47.152 435.235 45.968 431.971 45.968C428.707 45.968 425.923 47.152 423.619 49.52C421.379 51.824 420.259 55.024 420.259 59.12C420.259 63.216 421.379 66.48 423.619 68.912C425.923 71.28 428.707 72.464 431.971 72.464C435.235 72.464 437.987 71.28 440.227 68.912C442.531 66.544 443.683 63.312 443.683 59.216Z" fill="black"/>
</g>
<defs>
<clipPath id="clip0_8_12">
<rect width="506.1" height="105.9" fill="white"/>
</clipPath>
</defs>
</svg>
