<svg width="507" height="106" viewBox="0 0 507 106" fill="none" xmlns="http://www.w3.org/2000/svg">
<g clip-path="url(#clip0_7_32)">
<path fill-rule="evenodd" clip-rule="evenodd" d="M165.635 42.1454L118.735 69.2454C118.735 69.2454 116.635 52.2454 128.035 43.6454C137.435 36.5454 159.635 24.6454 159.635 24.6454" fill="#24292D"/>
<path fill-rule="evenodd" clip-rule="evenodd" d="M82.0349 70.3455C83.1349 74.2455 84.7349 77.9455 86.8349 81.6455C87.7349 83.2455 88.7349 84.7455 89.7349 86.1455L71.1349 96.9455C71.1349 96.9455 69.1349 79.9455 80.5349 71.4455C80.9349 71.1455 81.4349 70.7455 82.0349 70.3455Z" fill="#F16623"/>
<path fill-rule="evenodd" clip-rule="evenodd" d="M191.135 40.0454C194.635 61.0454 183.035 86.7454 163.535 98.0454C138.435 112.545 106.335 103.945 91.8349 78.8454C77.3349 53.6454 85.9349 21.5454 111.035 7.04544C136.135 -7.45456 168.235 1.14544 182.735 26.2454C182.935 26.6454 184.935 30.1454 185.035 30.9454L164.735 42.6454C164.335 41.8454 163.035 38.6454 162.635 37.9454C154.535 23.9454 136.035 17.6454 122.035 25.6454C108.035 33.7454 102.035 53.6454 110.135 67.6454C118.235 81.6454 138.935 88.2454 152.835 80.2454C157.335 77.6454 165.735 71.3454 169.435 61.8454C174.535 48.7454 179.435 44.7454 191.135 40.0454Z" fill="#24292D"/>
<path d="M237.735 85.2454H225.435C224.635 85.2454 223.935 84.5454 223.935 83.7454V15.7454C223.935 14.9454 224.635 14.2454 225.435 14.2454H237.735C238.535 14.2454 239.235 14.9454 239.235 15.7454V83.7454C239.235 84.5454 238.535 85.2454 237.735 85.2454ZM270.335 26.5454H235.935C235.135 26.5454 234.435 25.8454 234.435 25.0454V15.6454C234.435 14.8454 235.135 14.1454 235.935 14.1454H270.335C271.135 14.1454 271.835 14.8454 271.835 15.6454V25.0454C271.835 25.9454 271.135 26.5454 270.335 26.5454ZM265.435 54.7454H235.835C235.035 54.7454 234.335 54.0454 234.335 53.2454V44.3454C234.335 43.5454 235.035 42.8454 235.835 42.8454H265.435C266.235 42.8454 266.935 43.5454 266.935 44.3454V53.2454C267.035 54.0454 266.335 54.7454 265.435 54.7454ZM270.335 85.2454H235.835C235.035 85.2454 234.335 84.5454 234.335 83.7454V74.4454C234.335 73.6454 235.035 72.9454 235.835 72.9454H270.335C271.135 72.9454 271.835 73.6454 271.835 74.4454V83.7454C271.835 84.5454 271.235 85.2454 270.335 85.2454Z" fill="#F16623"/>
<path d="M303.368 15.96V87H286.952V15.96H303.368ZM323.521 27.864C320.641 27.864 318.273 27.032 316.417 25.368C314.625 23.64 313.729 21.528 313.729 19.032C313.729 16.472 314.625 14.36 316.417 12.696C318.273 10.968 320.641 10.104 323.521 10.104C326.337 10.104 328.641 10.968 330.433 12.696C332.289 14.36 333.217 16.472 333.217 19.032C333.217 21.528 332.289 23.64 330.433 25.368C328.641 27.032 326.337 27.864 323.521 27.864ZM331.681 33.432V87H315.265V33.432H331.681ZM373.433 73.08V87H365.081C359.129 87 354.489 85.56 351.161 82.68C347.833 79.736 346.169 74.968 346.169 68.376V47.064H339.641V33.432H346.169V20.376H362.585V33.432H373.337V47.064H362.585V68.568C362.585 70.168 362.969 71.32 363.737 72.024C364.505 72.728 365.785 73.08 367.577 73.08H373.433ZM433.073 59.352C433.073 60.888 432.977 62.488 432.785 64.152H395.633C395.889 67.48 396.945 70.04 398.801 71.832C400.721 73.56 403.057 74.424 405.809 74.424C409.905 74.424 412.753 72.696 414.353 69.24H431.825C430.929 72.76 429.297 75.928 426.929 78.744C424.625 81.56 421.713 83.768 418.193 85.368C414.673 86.968 410.737 87.768 406.385 87.768C401.137 87.768 396.465 86.648 392.369 84.408C388.273 82.168 385.073 78.968 382.769 74.808C380.465 70.648 379.313 65.784 379.313 60.216C379.313 54.648 380.433 49.784 382.673 45.624C384.977 41.464 388.177 38.264 392.273 36.024C396.369 33.784 401.073 32.664 406.385 32.664C411.569 32.664 416.177 33.752 420.209 35.928C424.241 38.104 427.377 41.208 429.617 45.24C431.921 49.272 433.073 53.976 433.073 59.352ZM416.273 55.032C416.273 52.216 415.313 49.976 413.393 48.312C411.473 46.648 409.073 45.816 406.193 45.816C403.441 45.816 401.105 46.616 399.185 48.216C397.329 49.816 396.177 52.088 395.729 55.032H416.273Z" fill="black"/>
</g>
<defs>
<clipPath id="clip0_7_32">
<rect width="506.1" height="105.9" fill="white"/>
</clipPath>
</defs>
</svg>
