<svg width="566" height="106" viewBox="0 0 566 106" fill="none" xmlns="http://www.w3.org/2000/svg">
<g clip-path="url(#clip0_8_11)">
<path fill-rule="evenodd" clip-rule="evenodd" d="M174.836 42.1852L122.385 69.3108C122.385 69.3108 120.036 52.2948 132.785 43.6866C143.298 36.5799 168.125 24.6687 168.125 24.6687" fill="#F16623"/>
<path fill-rule="evenodd" clip-rule="evenodd" d="M81.341 70.4119C82.5712 74.3155 84.3605 78.019 86.7091 81.7225C87.7156 83.3241 88.834 84.8255 89.9523 86.2268L69.1509 97.037C69.1509 97.037 66.9142 80.0209 79.6635 71.5129C80.1108 71.2126 80.67 70.8122 81.341 70.4119Z" fill="#F16623"/>
<path fill-rule="evenodd" clip-rule="evenodd" d="M203.354 40.0833C207.268 61.1031 194.295 86.8274 172.487 98.138C144.416 112.652 108.517 104.044 92.3009 78.9199C76.0847 53.6961 85.7026 21.5658 113.773 7.05209C141.844 -7.4616 177.743 1.14652 193.959 26.2702C194.183 26.6706 196.42 30.1739 196.532 30.9747L173.829 42.6857C173.382 41.885 171.928 38.6819 171.48 37.9813C162.422 23.968 141.732 17.6621 126.075 25.6697C110.418 33.7773 103.708 53.6961 112.767 67.7093C121.825 81.7225 144.975 88.3288 160.521 80.3212C165.553 77.7188 174.947 71.4128 179.085 61.9038C184.789 48.7915 190.269 44.7877 203.354 40.0833Z" fill="#F16623"/>
<path d="M238.933 87.672C234.005 87.672 229.589 86.872 225.685 85.272C221.781 83.672 218.645 81.304 216.277 78.168C213.973 75.032 212.757 71.256 212.629 66.84H230.101C230.357 69.336 231.221 71.256 232.693 72.6C234.165 73.88 236.085 74.52 238.453 74.52C240.885 74.52 242.805 73.976 244.213 72.888C245.621 71.736 246.325 70.168 246.325 68.184C246.325 66.52 245.749 65.144 244.597 64.056C243.509 62.968 242.133 62.072 240.469 61.368C238.869 60.664 236.565 59.864 233.557 58.968C229.205 57.624 225.653 56.28 222.901 54.936C220.149 53.592 217.781 51.608 215.797 48.984C213.813 46.36 212.821 42.936 212.821 38.712C212.821 32.44 215.093 27.544 219.637 24.024C224.181 20.44 230.101 18.648 237.397 18.648C244.821 18.648 250.805 20.44 255.349 24.024C259.893 27.544 262.325 32.472 262.645 38.808H244.885C244.757 36.632 243.957 34.936 242.485 33.72C241.013 32.44 239.125 31.8 236.821 31.8C234.837 31.8 233.237 32.344 232.021 33.432C230.805 34.456 230.197 35.96 230.197 37.944C230.197 40.12 231.221 41.816 233.269 43.032C235.317 44.248 238.517 45.56 242.869 46.968C247.221 48.44 250.741 49.848 253.429 51.192C256.181 52.536 258.549 54.488 260.533 57.048C262.517 59.608 263.509 62.904 263.509 66.936C263.509 70.776 262.517 74.264 260.533 77.4C258.613 80.536 255.797 83.032 252.085 84.888C248.373 86.744 243.989 87.672 238.933 87.672ZM297.995 87.768C292.747 87.768 288.011 86.648 283.787 84.408C279.627 82.168 276.331 78.968 273.899 74.808C271.531 70.648 270.347 65.784 270.347 60.216C270.347 54.712 271.563 49.88 273.995 45.72C276.427 41.496 279.755 38.264 283.979 36.024C288.203 33.784 292.939 32.664 298.187 32.664C303.435 32.664 308.171 33.784 312.395 36.024C316.619 38.264 319.947 41.496 322.379 45.72C324.811 49.88 326.027 54.712 326.027 60.216C326.027 65.72 324.779 70.584 322.283 74.808C319.851 78.968 316.491 82.168 312.203 84.408C307.979 86.648 303.243 87.768 297.995 87.768ZM297.995 73.56C301.131 73.56 303.787 72.408 305.963 70.104C308.203 67.8 309.323 64.504 309.323 60.216C309.323 55.928 308.235 52.632 306.059 50.328C303.947 48.024 301.323 46.872 298.187 46.872C294.987 46.872 292.331 48.024 290.219 50.328C288.107 52.568 287.051 55.864 287.051 60.216C287.051 64.504 288.075 67.8 290.123 70.104C292.235 72.408 294.859 73.56 297.995 73.56ZM403.088 32.856C409.744 32.856 415.024 34.872 418.928 38.904C422.896 42.936 424.88 48.536 424.88 55.704V87H408.56V57.912C408.56 54.456 407.632 51.8 405.776 49.944C403.984 48.024 401.488 47.064 398.288 47.064C395.088 47.064 392.56 48.024 390.704 49.944C388.912 51.8 388.016 54.456 388.016 57.912V87H371.696V57.912C371.696 54.456 370.768 51.8 368.912 49.944C367.12 48.024 364.624 47.064 361.424 47.064C358.224 47.064 355.696 48.024 353.84 49.944C352.048 51.8 351.152 54.456 351.152 57.912V87H334.736V33.432H351.152V40.152C352.816 37.912 354.992 36.152 357.68 34.872C360.368 33.528 363.408 32.856 366.8 32.856C370.832 32.856 374.416 33.72 377.552 35.448C380.752 37.176 383.248 39.64 385.04 42.84C386.896 39.896 389.424 37.496 392.624 35.64C395.824 33.784 399.312 32.856 403.088 32.856ZM433.097 60.12C433.097 54.616 434.121 49.784 436.169 45.624C438.281 41.464 441.129 38.264 444.713 36.024C448.297 33.784 452.297 32.664 456.713 32.664C460.489 32.664 463.785 33.432 466.601 34.968C469.481 36.504 471.689 38.52 473.225 41.016V33.432H489.641V87H473.225V79.416C471.625 81.912 469.385 83.928 466.505 85.464C463.689 87 460.393 87.768 456.617 87.768C452.265 87.768 448.297 86.648 444.713 84.408C441.129 82.104 438.281 78.872 436.169 74.712C434.121 70.488 433.097 65.624 433.097 60.12ZM473.225 60.216C473.225 56.12 472.073 52.888 469.769 50.52C467.529 48.152 464.777 46.968 461.513 46.968C458.249 46.968 455.465 48.152 453.161 50.52C450.921 52.824 449.801 56.024 449.801 60.12C449.801 64.216 450.921 67.48 453.161 69.912C455.465 72.28 458.249 73.464 461.513 73.464C464.777 73.464 467.529 72.28 469.769 69.912C472.073 67.544 473.225 64.312 473.225 60.216Z" fill="black"/>
</g>
<defs>
<clipPath id="clip0_8_11">
<rect width="566" height="106" fill="white"/>
</clipPath>
</defs>
</svg>
